<svg xmlns="http://www.w3.org/2000/svg" viewBox="0 0 512 512" style="width:128px;height:128px">
<style>
.st0{fill:#fff}</style>
<path class="st0" d="M265.771 394.438c-85.91-108.512 26.687-187.388 36.486-249.025 15.86-99.727-73.055-125.767-73.055-125.767 10.545 33.123-14.781 82.696-61.696 122.337-49.639 41.925-85.576 108.769-86.457 171.678-.382 4.874-.647 9.789-.647 14.764C80.401 429.811 162.589 512 263.976 512c42.149 0 80.978-14.208 111.966-38.096 0 0 14.216-11.85 20.344-18.227.001 0-82.837-3.978-130.515-61.239z"></path>
<path class="st0" d="M408.426 271.894c-14.997-19.987-26.871-38.413-26.09-55.261.764-16.848 16.89-49.124 16.89-49.124-42.996 1.536-102.865 39.915-111.053 129.462-8.054 88.151 86.474 140.721 109.508 119.231 56.797-59.878 29.162-119.747 10.745-144.308zM348.74 134.244c15.478 5.597 41.269-9.283 44.175-45.496 2.889-36.22-31.354-70.813-23.068-88.749-23.831 14.93-38.512 53.425-29.361 77 9.134 23.574 20.31 44.599 8.254 57.245z"></path>
<path class="st0" d="M348.74,134.244c15.478,5.597,41.269-9.283,44.175-45.496c2.889-36.22-31.354-70.813-23.068-88.749
		c-23.831,14.93-38.512,53.425-29.361,77C349.62,100.573,360.796,121.598,348.74,134.244z"></path>
</svg>